# xmcd
#
# Track frame offsets:
# 150
# 12615
# 32088
# 52013
# 68905
# 85884
# 110741
# 129893
# 145465
# 165237
# 184738
# 206900
# 225916
# 246597
#
# Disc length: 3596 seconds
#
#
# Revision: 0
# Processed by: cddbd v1.5.2PL0 Copyright (c) Steve Scherf et al.
# Submitted via: FreeRIP 2.945 
#
DISCID=c70e0a0e
DTITLE=Jay-Z - Kingdom Come
DYEAR=2006
DGENRE=Rap
TTITLE0=The Prelude
TTITLE1=Oh My God
TTITLE2=Kingdom Come
TTITLE3=Show Me What You Got
TTITLE4=Lost One (feat. Chrisette Michele)
TTITLE5=Do U Wanna Ride (feat. John Legend)
TTITLE6=30 Something
TTITLE7=I Made It
TTITLE8=Anything (feat. Usher and Pharrell)
TTITLE9=Hollywood (feat. Beyonce)
TTITLE10=Trouble
TTITLE11=Dig A Hole (feat. Sterling Simms)
TTITLE12=Minority Report (feat. Ne-Yo)
TTITLE13=Beach Chair (feat. Chris Martin)
EXTD=
EXTT0=
EXTT1=
EXTT2=
EXTT3=
EXTT4=
EXTT5=
EXTT6=
EXTT7=
EXTT8=
EXTT9=
EXTT10=
EXTT11=
EXTT12=
EXTT13=
PLAYORDER=
